<svg xmlns="http://www.w3.org/2000/svg" viewBox="0 0 480 360" role="img" aria-label="周芷若联动宣传图缩略图">
  <defs>
    <linearGradient id="bg" x1="0" y1="0" x2="1" y2="1">
      <stop offset="0" stop-color="#3f0714"/>
      <stop offset=".48" stop-color="#b80f3f"/>
      <stop offset="1" stop-color="#f0a11a"/>
    </linearGradient>
    <radialGradient id="glow" cx=".72" cy=".22" r=".58">
      <stop offset="0" stop-color="#ffd67a" stop-opacity=".76"/>
      <stop offset=".44" stop-color="#e8355e" stop-opacity=".28"/>
      <stop offset="1" stop-color="#3f0714" stop-opacity="0"/>
    </radialGradient>
    <filter id="soft" x="-20%" y="-20%" width="140%" height="140%">
      <feGaussianBlur stdDeviation="10"/>
    </filter>
  </defs>
  <rect width="480" height="360" fill="url(#bg)"/>
  <rect width="480" height="360" fill="url(#glow)"/>
  <circle cx="372" cy="76" r="86" fill="#fff2b8" opacity=".18" filter="url(#soft)"/>
  <path d="M0 273c68-25 126-32 185-18 80 19 128 9 194-39 39-28 71-38 101-34v178H0z" fill="#23050c" opacity=".28"/>
  <path d="M296 82c39 14 66 53 66 99 0 63-49 111-112 111-55 0-96-37-104-86 26 16 56 16 86 0 37-20 51-63 64-124z" fill="#fff4df" opacity=".82"/>
  <path d="M198 63c44 5 78 42 78 88 0 50-39 90-88 90-25 0-48-10-64-27 34-7 53-29 59-66 4-24 8-53 15-85z" fill="#111827" opacity=".78"/>
  <path d="M110 92c52 25 84 65 96 121" fill="none" stroke="#f9d26a" stroke-width="7" stroke-linecap="round" opacity=".78"/>
  <path d="M82 122h88M58 154h94M80 187h66" stroke="#ffe1a0" stroke-width="10" stroke-linecap="round" opacity=".55"/>
  <rect x="40" y="264" width="210" height="52" rx="26" fill="#fff7e6" opacity=".16"/>
  <circle cx="64" cy="290" r="9" fill="#ffde83"/>
  <circle cx="93" cy="290" r="9" fill="#ffde83" opacity=".7"/>
  <circle cx="122" cy="290" r="9" fill="#ffde83" opacity=".48"/>
</svg>
