<svg xmlns="http://www.w3.org/2000/svg" viewBox="0 0 480 360" role="img" aria-label="卡芙卡轮廓宇宙海报缩略图">
  <defs>
    <linearGradient id="bg" x1="0" y1="0" x2="1" y2="1">
      <stop offset="0" stop-color="#100720"/>
      <stop offset=".55" stop-color="#5b21b6"/>
      <stop offset="1" stop-color="#f59e0b"/>
    </linearGradient>
    <radialGradient id="nebula" cx=".38" cy=".36" r=".72">
      <stop offset="0" stop-color="#f0abfc" stop-opacity=".64"/>
      <stop offset=".36" stop-color="#8b5cf6" stop-opacity=".34"/>
      <stop offset="1" stop-color="#100720" stop-opacity="0"/>
    </radialGradient>
  </defs>
  <rect width="480" height="360" fill="url(#bg)"/>
  <rect width="480" height="360" fill="url(#nebula)"/>
  <g opacity=".85" fill="#fff7d1">
    <circle cx="80" cy="64" r="2"/><circle cx="148" cy="118" r="2.5"/><circle cx="407" cy="74" r="2"/>
    <circle cx="358" cy="172" r="1.8"/><circle cx="63" cy="226" r="1.6"/><circle cx="272" cy="52" r="2.2"/>
  </g>
  <path d="M88 286c78-46 150-60 216-42 52 14 100 7 176-34v150H0v-32c31-13 60-27 88-42z" fill="#090615" opacity=".55"/>
  <path d="M259 70c35 12 59 47 59 90 0 26-9 49-24 66 31 23 51 58 53 99H132c2-41 22-76 53-99-15-17-24-40-24-66 0-52 35-94 98-90z" fill="#0b0714" opacity=".9"/>
  <path d="M176 160c25 20 70 20 127 0" fill="none" stroke="#f9a8d4" stroke-width="8" stroke-linecap="round" opacity=".52"/>
  <path d="M142 96c38 42 82 68 151 70" fill="none" stroke="#fde68a" stroke-width="5" stroke-linecap="round" opacity=".68"/>
  <circle cx="334" cy="84" r="44" fill="none" stroke="#fbbf24" stroke-width="2" opacity=".5"/>
  <circle cx="334" cy="84" r="27" fill="none" stroke="#fbbf24" stroke-width="2" opacity=".34"/>
</svg>
